<svg id="tiktok" xmlns="http://www.w3.org/2000/svg" width="19.248" height="22.156" viewBox="0 0 19.248 22.156">
  <path id="パス_4" data-name="パス 4" d="M22.7.018C23.911,0,25.111.009,26.311,0a5.75,5.75,0,0,0,1.615,3.849A6.51,6.51,0,0,0,31.841,5.5v3.72a9.881,9.881,0,0,1-3.877-.9,11.406,11.406,0,0,1-1.5-.859c-.009,2.7.009,5.391-.018,8.077A7.051,7.051,0,0,1,25.2,19.183a6.878,6.878,0,0,1-5.456,2.963,6.731,6.731,0,0,1-3.766-.951,6.961,6.961,0,0,1-3.369-5.271c-.018-.462-.028-.923-.009-1.375a6.95,6.95,0,0,1,8.059-6.167c.018,1.366-.037,2.732-.037,4.1a3.167,3.167,0,0,0-4.043,1.957,3.662,3.662,0,0,0-.129,1.486,3.142,3.142,0,0,0,3.231,2.649,3.1,3.1,0,0,0,2.557-1.486,2.13,2.13,0,0,0,.378-.979c.092-1.652.055-3.3.065-4.948.009-3.72-.009-7.431.018-11.142Z" transform="translate(-12.593)" fill="#040000"/>
</svg>
