<svg xmlns="http://www.w3.org/2000/svg" width="25.395" height="17.856" viewBox="0 0 25.395 17.856">
  <path id="Icon_awesome-youtube" data-name="Icon awesome-youtube" d="M25.914,7.294a3.191,3.191,0,0,0-2.245-2.26C21.689,4.5,13.747,4.5,13.747,4.5s-7.941,0-9.922.534a3.191,3.191,0,0,0-2.245,2.26,33.474,33.474,0,0,0-.531,6.152A33.474,33.474,0,0,0,1.581,19.6a3.143,3.143,0,0,0,2.245,2.224c1.98.534,9.922.534,9.922.534s7.941,0,9.922-.534A3.143,3.143,0,0,0,25.914,19.6a33.474,33.474,0,0,0,.531-6.152A33.474,33.474,0,0,0,25.914,7.294ZM11.15,17.222V9.67l6.637,3.776L11.15,17.222Z" transform="translate(-1.05 -4.5)" fill="#fff"/>
</svg>
