<svg xmlns="http://www.w3.org/2000/svg" width="20" height="20" viewBox="0 0 20 20">
  <path id="Icon_awesome-arrow-circle-down" data-name="Icon awesome-arrow-circle-down" d="M20.563,10.563a10,10,0,1,1-10-10A10,10,0,0,1,20.563,10.563ZM14.772,9.4l-2.919,3.044V5.079a.965.965,0,0,0-.968-.968H10.24a.965.965,0,0,0-.968.968v7.363L6.353,9.4A.969.969,0,0,0,4.97,9.381l-.44.444a.964.964,0,0,0,0,1.367l5.347,5.351a.964.964,0,0,0,1.367,0l5.351-5.351a.964.964,0,0,0,0-1.367l-.44-.444a.969.969,0,0,0-1.383.016Z" transform="translate(-0.563 -0.563)" fill="#7c7b7c"/>
</svg>
